<?xml version="1.0" encoding="UTF-8"?>
<!DOCTYPE svg PUBLIC "-//W3C//DTD SVG 1.1//EN" "http://www.w3.org/Graphics/SVG/1.1/DTD/svg11.dtd">
<svg xmlns="http://www.w3.org/2000/svg" version="1.1" width="1200px" height="1200px" style="shape-rendering:geometricPrecision; text-rendering:geometricPrecision; image-rendering:optimizeQuality; fill-rule:evenodd; clip-rule:evenodd" xmlns:xlink="http://www.w3.org/1999/xlink">
<g><path style="opacity:0.971" fill="#dcdcdc" d="M 566.5,7.5 C 731.123,0.974186 874.79,51.8075 997.5,160C 1133.81,288.218 1198.31,446.385 1191,634.5C 1177.12,816.138 1098.95,962.638 956.5,1074C 822.717,1171.78 673.384,1209.11 508.5,1186C 346.23,1157.83 216.397,1078 119,946.5C 19.2207,801.943 -13.1127,643.276 22,470.5C 60.9126,308.361 150.413,182.861 290.5,94C 375.406,42.5313 467.406,13.698 566.5,7.5 Z"/></g>
<g><path style="opacity:1" fill="#fefefe" d="M 576.5,27.5 C 752.788,24.1734 901.288,86.1734 1022,213.5C 1139.96,347.402 1187.96,503.402 1166,681.5C 1136.17,861.466 1044.01,998.966 889.5,1094C 761.169,1167.08 624.502,1189.08 479.5,1160C 316.689,1121.57 192.189,1031.07 106,888.5C 32.9604,758.611 11.6271,620.611 42,474.5C 80.8939,314.346 170.394,191.512 310.5,106C 392.842,58.0849 481.509,31.9183 576.5,27.5 Z"/></g>
<g><path style="opacity:1" fill="#f1c147" d="M 799.5,343.5 C 815.428,341.776 831.428,341.11 847.5,341.5C 868.328,348.125 887.495,358.125 905,371.5C 927.691,397.883 942.691,428.217 950,462.5C 954.855,488.951 956.855,515.618 956,542.5C 953.024,570.61 941.857,594.777 922.5,615C 913.465,620.72 904.465,626.387 895.5,632C 868.649,642.931 841.983,654.098 815.5,665.5C 847.085,679.051 872.585,700.051 892,728.5C 896.41,738.32 901.077,747.986 906,757.5C 908.427,763.632 910.093,769.966 911,776.5C 912.641,790.821 914.141,805.155 915.5,819.5C 915.081,828.681 913.581,837.681 911,846.5C 904.185,853.654 897.685,861.154 891.5,869C 884.994,874.747 877.994,879.747 870.5,884C 844.006,892.741 817.006,895.574 789.5,892.5C 774.084,890.152 758.751,887.152 743.5,883.5C 715.331,872.702 689.498,857.702 666,838.5C 663.044,845.377 659.711,852.044 656,858.5C 627.241,896.933 591.074,926.1 547.5,946C 499.272,956.968 465.105,940.135 445,895.5C 443.063,891.354 441.729,887.021 441,882.5C 440.333,866.5 440.333,850.5 441,834.5C 443.556,823.267 446.556,812.267 450,801.5C 440.818,806.674 431.318,811.174 421.5,815C 403.01,821.58 384.343,827.58 365.5,833C 348.033,834.211 330.7,833.211 313.5,830C 307.497,829.29 302.497,826.79 298.5,822.5C 275.11,813.278 259.943,796.612 253,772.5C 249.03,757.954 245.696,743.287 243,728.5C 237.34,686.034 250.507,650.867 282.5,623C 300.993,611.669 320.993,604.836 342.5,602.5C 360.512,602.833 378.512,602.5 396.5,601.5C 396.376,600.893 396.043,600.56 395.5,600.5C 374.134,587.972 354.967,572.639 338,554.5C 315.089,525.843 307.755,493.51 316,457.5C 317.916,449.829 321.75,443.329 327.5,438C 335.666,430.916 344.999,425.916 355.5,423C 364.833,422.333 374.167,422.333 383.5,423C 401.963,426.394 419.296,432.894 435.5,442.5C 435.833,442.167 436.167,441.833 436.5,441.5C 433.548,432.692 431.381,423.692 430,414.5C 429.08,383.144 429.413,351.81 431,320.5C 433.639,312.667 435.639,304.667 437,296.5C 443.257,279.983 451.59,264.649 462,250.5C 492.754,225.378 527.921,210.544 567.5,206C 582.292,203.847 596.292,205.847 609.5,212C 622.14,219.301 633.64,228.135 644,238.5C 653.359,250.884 660.359,264.551 665,279.5C 676.292,315.007 683.625,351.34 687,388.5C 688.571,398.355 690.904,408.021 694,417.5C 703.709,406.794 713.042,395.794 722,384.5C 743.343,362.246 769.177,348.579 799.5,343.5 Z"/></g>
<g><path style="opacity:1" fill="#f5d178" d="M 847.5,341.5 C 831.428,341.11 815.428,341.776 799.5,343.5C 802.258,342.239 805.258,341.406 808.5,341C 821.673,340.173 834.673,340.34 847.5,341.5 Z"/></g>
<g><path style="opacity:1" fill="#f82548" d="M 687.5,609.5 C 687.792,590.793 685.292,572.459 680,554.5C 677.768,550.675 675.768,550.675 674,554.5C 673.833,556 673.667,557.5 673.5,559C 677.931,575.883 679.598,593.049 678.5,610.5C 637.631,607.806 618.797,586.14 622,545.5C 628.765,525.736 642.265,513.236 662.5,508C 682.714,507.191 699.88,514.024 714,528.5C 717.137,533.108 719.47,538.108 721,543.5C 723.756,558.801 722.756,573.801 718,588.5C 711.53,600.822 701.363,607.822 687.5,609.5 Z"/></g>
<g><path style="opacity:1" fill="#050208" d="M 687.5,609.5 C 686.222,626.84 681.388,643.173 673,658.5C 668.611,663.889 664.611,669.556 661,675.5C 656.756,680.415 651.923,684.581 646.5,688C 619.905,699.061 592.239,702.728 563.5,699C 549.508,697.619 537.175,692.452 526.5,683.5C 515.207,670.706 503.374,658.372 491,646.5C 490.501,641.845 490.334,637.179 490.5,632.5C 491.873,632.343 493.207,632.51 494.5,633C 505.843,643.677 516.51,655.01 526.5,667C 530.34,669.356 534.006,671.856 537.5,674.5C 542.041,678.607 547.374,681.44 553.5,683C 574.839,686.317 596.172,686.317 617.5,683C 628.679,680.574 639.012,676.241 648.5,670C 655.446,661.719 661.612,652.886 667,643.5C 669.391,637.051 672.058,630.718 675,624.5C 676.893,619.993 678.059,615.327 678.5,610.5C 679.598,593.049 677.931,575.883 673.5,559C 673.667,557.5 673.833,556 674,554.5C 675.768,550.675 677.768,550.675 680,554.5C 685.292,572.459 687.792,590.793 687.5,609.5 Z"/></g>
<g><path style="opacity:1" fill="#090601" d="M 600.5,567.5 C 610.846,566.678 615.846,571.512 615.5,582C 615.917,585.521 614.917,588.521 612.5,591C 605.419,597.054 598.586,596.888 592,590.5C 587.631,579.799 590.465,572.133 600.5,567.5 Z"/></g>
<g><path style="opacity:1" fill="#090501" d="M 556.5,587.5 C 560.182,587.335 563.848,587.501 567.5,588C 569.552,588.93 571.052,590.43 572,592.5C 577.73,609.421 571.896,616.588 554.5,614C 547.915,609.532 545.748,603.365 548,595.5C 550.098,591.897 552.932,589.23 556.5,587.5 Z"/></g>
<g><path style="opacity:1" fill="#f82548" d="M 537.5,674.5 C 534.006,671.856 530.34,669.356 526.5,667C 516.51,655.01 505.843,643.677 494.5,633C 493.207,632.51 491.873,632.343 490.5,632.5C 490.334,637.179 490.501,641.845 491,646.5C 503.374,658.372 515.207,670.706 526.5,683.5C 515.548,689.73 503.882,691.23 491.5,688C 460.732,678.507 447.899,657.673 453,625.5C 454.401,615.527 459.235,607.694 467.5,602C 482.666,589.876 499.666,586.543 518.5,592C 527.789,595.89 535.956,601.39 543,608.5C 546.368,612.935 548.368,617.935 549,623.5C 551.591,642.057 547.758,659.057 537.5,674.5 Z"/></g>
<g><path style="opacity:1" fill="#f5d179" d="M 395.5,600.5 C 396.043,600.56 396.376,600.893 396.5,601.5C 378.512,602.5 360.512,602.833 342.5,602.5C 360.167,601.833 377.833,601.167 395.5,600.5 Z"/></g>
<g><path style="opacity:1" fill="#f5ce70" d="M 743.5,883.5 C 758.751,887.152 774.084,890.152 789.5,892.5C 773.493,891.929 758.16,888.929 743.5,883.5 Z"/></g>
</svg>
