<?xml version="1.0" encoding="UTF-8"?>
<!DOCTYPE svg PUBLIC "-//W3C//DTD SVG 1.1//EN" "http://www.w3.org/Graphics/SVG/1.1/DTD/svg11.dtd">
<svg xmlns="http://www.w3.org/2000/svg" version="1.1" width="1200px" height="1200px" style="shape-rendering:geometricPrecision; text-rendering:geometricPrecision; image-rendering:optimizeQuality; fill-rule:evenodd; clip-rule:evenodd" xmlns:xlink="http://www.w3.org/1999/xlink">
<g><path style="opacity:0.971" fill="#dcdcdc" d="M 566.5,7.5 C 731.123,0.974186 874.79,51.8075 997.5,160C 1133.81,288.218 1198.31,446.385 1191,634.5C 1177.12,816.138 1098.95,962.638 956.5,1074C 822.717,1171.78 673.384,1209.11 508.5,1186C 346.23,1157.83 216.397,1078 119,946.5C 19.2207,801.943 -13.1127,643.276 22,470.5C 60.9126,308.361 150.413,182.861 290.5,94C 375.406,42.5313 467.406,13.698 566.5,7.5 Z"/></g>
<g><path style="opacity:1" fill="#fefefe" d="M 576.5,27.5 C 752.808,24.1787 901.308,86.1787 1022,213.5C 1136.6,343.317 1185.1,494.817 1167.5,668C 1143.95,838.856 1062.29,973.856 922.5,1073C 793.611,1158.38 652.611,1188.71 499.5,1164C 349.702,1134.4 229.202,1058.9 138,937.5C 39.6158,797.256 7.61579,642.923 42,474.5C 80.8939,314.346 170.394,191.512 310.5,106C 392.834,58.0865 481.501,31.9198 576.5,27.5 Z"/></g>
<g><path style="opacity:1" fill="#2c2c2c" d="M 418.5,284.5 C 550.5,284.333 682.5,284.5 814.5,285C 848.084,290.05 871.584,308.217 885,339.5C 887.454,346.314 889.12,353.314 890,360.5C 890.667,519.167 890.667,677.833 890,836.5C 882.949,880.551 857.449,906.384 813.5,914C 681.137,914.99 548.804,914.656 416.5,913C 379.281,903.947 356.281,880.781 347.5,843.5C 363.856,842.889 380.189,842.055 396.5,841C 424.189,833.977 441.022,816.477 447,788.5C 449.477,747.983 430.977,723.15 391.5,714C 376.504,713.5 361.504,713.333 346.5,713.5C 346.5,696.833 346.5,680.167 346.5,663.5C 363.202,663.872 379.868,663.372 396.5,662C 428.268,652.379 444.935,630.879 446.5,597.5C 444.129,568.598 429.462,548.764 402.5,538C 398.261,536.587 393.928,535.587 389.5,535C 375.171,534.5 360.837,534.333 346.5,534.5C 346.5,517.833 346.5,501.167 346.5,484.5C 361.504,484.667 376.504,484.5 391.5,484C 417.969,479.182 435.469,464.016 444,438.5C 451.204,402.42 438.371,376.254 405.5,360C 399.944,358.194 394.278,356.861 388.5,356C 374.837,355.5 361.171,355.333 347.5,355.5C 356.24,316.76 379.907,293.093 418.5,284.5 Z"/></g>
<g><path style="opacity:1" fill="#2c2c2c" d="M 306.5,401.5 C 333.169,401.333 359.835,401.5 386.5,402C 399.718,408.99 402.885,419.156 396,432.5C 393.072,436.381 389.239,438.881 384.5,440C 359.167,440.667 333.833,440.667 308.5,440C 294.251,433.255 290.751,422.755 298,408.5C 300.628,405.79 303.461,403.456 306.5,401.5 Z"/></g>
<g><path style="opacity:1" fill="#fefefe" d="M 753.5,441.5 C 778.757,439.196 795.59,449.863 804,473.5C 807.134,488.531 803.801,501.864 794,513.5C 722.194,584.306 650.694,655.473 579.5,727C 576.833,728.333 574.167,729.667 571.5,731C 557.129,733.148 542.796,735.481 528.5,738C 519.564,740.443 513.064,737.61 509,729.5C 508.333,724.5 508.333,719.5 509,714.5C 510.864,702.192 512.531,689.859 514,677.5C 514.899,673.462 516.566,669.795 519,666.5C 590.833,594.667 662.667,522.833 734.5,451C 740.378,446.727 746.712,443.561 753.5,441.5 Z"/></g>
<g><path style="opacity:1" fill="#2e2e2e" d="M 307.5,581.5 C 333.885,581.036 360.218,581.536 386.5,583C 401.298,593.512 402.298,605.179 389.5,618C 387.283,619.275 384.949,620.275 382.5,621C 357.5,621.667 332.5,621.667 307.5,621C 291.935,613.308 288.768,602.141 298,587.5C 301.18,585.338 304.346,583.338 307.5,581.5 Z"/></g>
<g><path style="opacity:1" fill="#2c2c2c" d="M 306.5,762.5 C 332.502,762.333 358.502,762.5 384.5,763C 390.841,764.675 395.341,768.508 398,774.5C 400.981,787.376 396.481,796.209 384.5,801C 358.833,801.667 333.167,801.667 307.5,801C 296.323,796.15 291.823,787.65 294,775.5C 297.025,769.977 301.191,765.644 306.5,762.5 Z"/></g>
</svg>
